<?xml version="1.0" standalone="no"?>
<!DOCTYPE svg PUBLIC "-//W3C//DTD SVG 20010904//EN"
 "http://www.w3.org/TR/2001/REC-SVG-20010904/DTD/svg10.dtd">
<svg version="1.0" xmlns="http://www.w3.org/2000/svg"
 width="16.000000pt" height="16.000000pt" viewBox="0 0 16.000000 16.000000"
 preserveAspectRatio="xMidYMid meet">
<metadata>
Created by potrace 1.12, written by Peter Selinger 2001-2015
</metadata>
<g transform="translate(0.000000,16.000000) scale(0.100000,-0.100000)"
fill="#000000" stroke="none">
<path d="M13 129 c24 -14 24 -84 0 -98 -15 -9 -12 -10 17 -11 23 0 30 3 22 9
-8 5 -12 23 -10 47 l3 39 22 -35 c16 -25 19 -38 11 -47 -8 -10 0 -13 38 -13
40 0 45 2 32 13 -8 6 -30 33 -47 60 -29 42 -36 47 -69 47 -30 -1 -34 -3 -19
-11z"/>
<path d="M110 131 c0 -18 18 -21 30 -6 10 13 9 15 -9 15 -11 0 -21 -4 -21 -9z"/>
</g>
</svg>
